<svg width="32" height="32" viewBox="0 0 32 32" fill="none" xmlns="http://www.w3.org/2000/svg">
  <path d="M16 4C16 4 12 8 12 12C12 14.2091 13.7909 16 16 16C18.2091 16 20 14.2091 20 12C20 8 16 4 16 4Z" fill="#9DFF65"/>
  <circle cx="16" cy="16" r="2" fill="#6AF4F0"/>
  <path d="M16 18C16 18 10 20 10 24C10 26.2091 11.7909 28 14 28C16.2091 28 18 26.2091 18 24" stroke="#9DFF65" stroke-width="2" fill="none"/>
  <path d="M16 18C16 18 22 20 22 24C22 26.2091 20.2091 28 18 28C15.7909 28 14 26.2091 14 24" stroke="#6AF4F0" stroke-width="2" fill="none"/>
  <circle cx="10" cy="12" r="1.5" fill="#9DFF65" opacity="0.6"/>
  <circle cx="22" cy="12" r="1.5" fill="#6AF4F0" opacity="0.6"/>
  <line x1="10" y1="12" x2="16" y2="16" stroke="#9DFF65" stroke-width="1" opacity="0.4"/>
  <line x1="22" y1="12" x2="16" y2="16" stroke="#6AF4F0" stroke-width="1" opacity="0.4"/>
</svg>
